PathFileType	4	(X/Y/Z)	s07c0203.trc
DataRate	CameraRate	NumFrames	NumMarkers	Units	OrigDataRate	OrigDataStartFrame	OrigNumFrames
200	200	6	48	mm	200	1000	2000
Frame#	Time	racr			lacr			c7			jug			rlel			rdr			llel			ldr			s2			lic			ric			lasi			rasi			rpsi			lpsi			rgt			lgt			rth1			rth2			rth3			rth4			rlfc			rmfc			rsh1			rsh2			rsh3			rsh4			rlmal			rcal			rtoe			rmt5			lth1			lth2			lth4			lth3			llfc			lmfc			lsh1			lsh2			lsh3			lsh4			llmal			lcal			ltoe			lmt5			SBIKE			LBIKE			RBIKE			
		X1	Y1	Z1	X2	Y2	Z2	X3	Y3	Z3	X4	Y4	Z4	X5	Y5	Z5	X6	Y6	Z6	X7	Y7	Z7	X8	Y8	Z8	X9	Y9	Z9	X10	Y10	Z10	X11	Y11	Z11	X12	Y12	Z12	X13	Y13	Z13	X14	Y14	Z14	X15	Y15	Z15	X16	Y16	Z16	X17	Y17	Z17	X18	Y18	Z18	X19	Y19	Z19	X20	Y20	Z20	X21	Y21	Z21	X22	Y22	Z22	X23	Y23	Z23	X24	Y24	Z24	X25	Y25	Z25	X26	Y26	Z26	X27	Y27	Z27	X28	Y28	Z28	X29	Y29	Z29	X30	Y30	Z30	X31	Y31	Z31	X32	Y32	Z32	X33	Y33	Z33	X34	Y34	Z34	X35	Y35	Z35	X36	Y36	Z36	X37	Y37	Z37	X38	Y38	Z38	X39	Y39	Z39	X40	Y40	Z40	X41	Y41	Z41	X42	Y42	Z42	X43	Y43	Z43	X44	Y44	Z44	X45	Y45	Z45	X46	Y46	Z46	X47	Y47	Z47	X48	Y48	Z48	
1000	5.0000	503.398722	1420.845353	-90.284489	476.298075	1420.193171	-374.440211	466.196762	1470.759321	-232.848498	409.499537	1325.465228	-232.542934	485.215163	1110.789483	90.020390	693.871937	952.615625	-52.191912	474.987549	1127.461006	-562.111778	693.008257	949.226333	-452.778995	-95.018899	1200.987841	-244.842632	55.744282	1274.019213	-379.236340	68.624838	1241.243806	-88.532490	92.110920	1199.539919	-355.880455	91.736865	1187.803065	-108.756215	-70.235946	1240.887774	-188.096370	-62.961643	1256.147279	-294.446780	16.211258	1101.445995	-58.252121	25.000043	1127.474056	-426.474179	107.094652	955.993612	-59.631825	158.871148	885.910443	-73.793875	172.146472	801.107381	-76.958160	187.863266	900.294684	-92.584576	219.057617	678.260006	-111.538984	190.553172	659.709467	-208.636190	184.407572	541.157693	-75.594063	187.729114	453.396344	-93.764309	151.939255	374.395090	-84.201550	198.274750	453.849697	-132.446300	121.496122	233.953029	-79.198028	61.249012	180.566333	-104.266654	349.893427	212.579484	-127.624261	281.839183	165.825309	-56.192357	127.750827	1068.920086	-430.235494	215.963108	1063.337477	-431.341675	227.746371	1095.830680	-420.267693	290.255649	1013.728483	-431.827130	441.635050	915.927836	-402.394177	435.316305	897.181705	-299.981597	336.372467	810.829850	-414.551493	288.913421	740.854488	-397.227359	209.169742	699.757408	-400.405085	297.475656	738.205665	-356.098771	105.469502	616.066853	-400.695084	32.383118	638.484596	-356.080297	204.757331	407.877540	-361.519799	134.035088	454.340281	-422.700565	-260.626083	963.576431	-236.648235	-82.766697	79.521136	-436.655978	-82.794637	79.482496	-38.864799	
1001	5.0050	505.486692	1418.268190	-94.329328	473.517324	1420.998763	-377.714229	465.855231	1469.211484	-235.263174	409.916265	1323.612939	-235.537848	485.935971	1110.891470	90.087964	693.728192	952.578100	-52.437241	473.675140	1126.310887	-561.529580	692.735449	948.854609	-451.924277	-94.938587	1199.813074	-243.236285	54.369485	1274.657083	-378.220165	70.479773	1238.683638	-87.187513	91.059338	1199.795873	-355.217591	92.795224	1185.610451	-107.793396	-69.682474	1239.257769	-185.643261	-63.563560	1255.573841	-292.149052	16.458889	1099.450052	-57.645239	24.278441	1128.271407	-425.994589	105.096277	953.197731	-58.126151	155.935284	882.417497	-71.817948	168.131851	797.439800	-74.367196	185.100900	896.304946	-90.734662	213.798213	673.845093	-109.510689	185.958591	655.487716	-207.651066	177.862280	537.136425	-74.228457	180.769762	449.288692	-92.480817	144.233623	370.548717	-83.267622	191.757623	449.783744	-131.417475	112.881058	230.168078	-78.976960	52.228027	177.635667	-104.120433	341.354149	206.039484	-127.974746	272.564674	160.268131	-56.021714	127.813270	1072.107899	-430.142254	216.234506	1069.026755	-431.975756	227.111910	1101.556280	-420.340312	291.634611	1021.087980	-432.585322	446.401406	926.880614	-402.151834	440.008923	908.760406	-299.683090	343.594455	819.970178	-415.808036	297.114172	749.740186	-398.359716	217.456313	707.508488	-401.152776	306.365091	745.497434	-356.743852	114.087104	621.524822	-401.327771	38.659437	645.428315	-360.580468	214.868411	413.914861	-361.409071	143.735649	459.750956	-423.011856	-260.491000	963.628477	-236.656078	-82.760720	79.522560	-436.663172	-82.755036	79.251249	-39.063507	
1002	5.0100	507.566345	1415.568787	-98.416069	470.715976	1421.430727	-380.923708	465.672928	1467.988643	-237.969231	409.372375	1322.520866	-238.807869	486.570896	1110.896627	90.103265	693.665106	952.537451	-52.659106	472.423519	1125.195552	-561.071318	692.444127	948.497113	-451.173659	-95.115345	1198.722964	-241.364766	52.555299	1274.836877	-376.249378	72.108952	1236.107735	-86.013916	89.890600	1199.880384	-354.511066	93.806893	1183.246517	-106.799145	-67.066901	1236.530974	-184.988743	-64.222347	1254.838897	-289.962875	16.603636	1097.343428	-56.874296	23.416131	1128.994546	-425.514457	103.229009	950.586247	-56.668768	153.297396	879.177618	-69.865174	164.542150	794.060921	-71.781820	182.579691	892.599303	-88.899461	209.164870	669.901327	-107.696518	183.100689	651.704020	-205.709967	172.014006	533.596308	-72.892648	174.100124	445.797078	-91.245694	136.701429	368.105859	-81.796272	185.216999	446.152306	-129.697701	104.144354	227.249918	-78.672731	42.925126	176.051969	-103.806455	332.390285	200.334118	-127.677179	262.892301	155.311377	-55.719389	127.516734	1075.109938	-429.813077	215.956683	1073.970432	-431.943728	226.139375	1106.924947	-420.252473	292.486093	1028.269425	-433.073503	452.290486	936.420683	-399.190236	444.531326	918.288413	-300.133867	350.364520	828.673410	-416.265696	304.800021	758.006413	-398.804341	225.421707	714.784021	-401.748577	312.483757	755.571801	-357.055552	122.077741	626.350617	-401.840363	46.289354	649.268268	-361.105687	225.306379	419.729539	-361.478821	153.817955	464.735007	-423.087704	-260.368989	963.642348	-236.709996	-82.749526	79.516968	-436.677771	-82.752823	79.266962	-39.050814	
1003	5.0150	509.558690	1412.750829	-102.517506	467.993789	1421.506660	-383.955682	465.064514	1466.423359	-240.518667	409.557052	1320.646533	-242.105893	487.264637	1110.768776	90.074220	693.654475	952.497046	-52.868643	471.198494	1123.913975	-560.623512	692.194608	948.115114	-450.610723	-95.454592	1197.574888	-239.454489	50.572112	1274.935452	-374.714268	73.598738	1233.296219	-84.817331	88.641864	1199.921717	-353.862671	94.559348	1180.974103	-105.931490	-67.406367	1235.555423	-182.149882	-64.980219	1254.016783	-287.790304	16.905148	1095.250050	-56.429896	22.335192	1129.640506	-425.037314	101.519207	948.074994	-55.265747	151.051481	876.109704	-67.927898	161.464918	790.916611	-69.312484	180.393750	889.374299	-86.751138	205.440886	666.441853	-106.069480	180.468685	648.558008	-204.466459	166.874184	530.709560	-71.866328	167.848860	442.834417	-90.285624	129.442069	365.001997	-81.714110	179.231575	443.062054	-128.672536	95.111151	225.176474	-78.435725	33.217814	174.216203	-103.735229	323.239487	195.233485	-127.120976	253.052935	151.007564	-55.496980	126.773045	1077.920056	-429.338675	215.140746	1078.755566	-432.081546	224.879327	1111.843189	-420.027684	292.756153	1034.724292	-433.366019	452.642480	947.555760	-402.912474	448.093110	927.923018	-299.891167	356.568647	836.858716	-416.327033	311.512318	765.620692	-398.685148	232.726580	721.355729	-402.427459	319.189822	763.278400	-357.185538	129.767485	630.506072	-402.216505	53.549827	652.215293	-361.647697	235.680871	425.104508	-361.192174	163.996335	469.179695	-423.033595	-260.313013	963.604786	-236.718689	-82.745634	79.502284	-436.667435	-82.759813	79.175293	-39.077944	
1004	5.0200	511.518495	1409.848565	-106.565197	465.351077	1421.209132	-386.807693	464.616743	1464.879111	-243.027044	409.281926	1319.034651	-245.280657	487.957200	1110.562394	90.127446	693.745575	952.470488	-52.998919	469.946313	1122.646617	-560.342480	692.022282	947.821882	-450.347551	-96.040925	1196.527965	-237.795060	48.589658	1275.047743	-373.051444	74.868662	1230.527356	-83.628105	87.071355	1199.856899	-353.172193	95.204922	1178.683895	-105.171911	-67.622748	1234.298456	-180.153684	-65.958582	1253.336281	-285.690588	16.887558	1093.030014	-55.869431	20.967443	1130.387071	-424.447279	100.078086	945.702865	-53.866278	149.201276	873.408561	-66.008066	158.977974	788.065942	-67.132742	178.697176	886.218085	-84.929173	202.673336	663.487351	-104.796993	178.558088	645.916996	-203.611856	162.384082	528.381152	-71.124394	162.042135	440.666144	-89.527399	122.450621	363.330608	-81.091775	173.642835	440.611448	-127.869651	86.174364	223.937599	-78.201361	23.347007	174.138818	-103.392382	314.089456	190.586656	-127.017134	243.043539	147.286768	-55.592662	125.722407	1080.603742	-428.651338	213.952643	1082.838967	-431.634984	223.220865	1116.309320	-419.552492	292.764887	1040.693370	-433.801294	454.805670	956.693101	-402.424337	450.685771	936.972545	-299.241177	362.037111	844.149355	-416.087688	317.508127	772.393988	-398.415900	239.491427	727.105510	-402.591360	325.005084	770.211239	-356.922713	137.381551	634.139605	-402.692350	60.476252	653.929931	-361.952060	246.369439	430.123524	-361.043937	174.103065	473.061133	-423.086111	-260.331597	963.583337	-236.727492	-82.763500	79.410024	-436.621782	-82.759203	79.162710	-39.077380	
1005	5.0250	513.388893	1407.007504	-110.423291	462.902920	1420.659013	-389.465089	464.282770	1463.231763	-245.505722	408.973663	1317.375078	-248.254363	488.588284	1110.210836	90.164917	693.871154	952.433131	-53.085563	468.728145	1121.174348	-560.056810	691.917143	947.543295	-450.386846	-96.883278	1195.549684	-235.823709	46.465995	1275.073623	-371.448783	75.911984	1227.797622	-82.345815	85.340164	1199.744713	-352.556104	95.743132	1176.498807	-104.385865	-67.841772	1232.807201	-180.195131	-67.223694	1252.689633	-283.537451	17.256434	1090.876239	-55.372946	19.335231	1131.187574	-423.809703	98.955479	943.482548	-52.526794	147.767972	870.867873	-64.360139	157.060064	785.556593	-65.358735	177.470332	883.625427	-83.093110	200.860599	661.050534	-103.939057	177.510174	643.769016	-203.047920	158.786818	526.755146	-70.621957	156.807543	439.043959	-89.129059	116.018370	362.352396	-80.777678	168.565364	438.745452	-127.416460	77.700889	223.492416	-78.046535	14.509640	174.801054	-103.698576	305.005627	186.343493	-127.221936	233.382208	144.310730	-55.428769	124.347988	1083.003840	-427.830267	212.537929	1086.547435	-431.009188	221.324764	1120.207969	-418.779194	291.980151	1045.658057	-433.385702	456.177577	964.987640	-401.581598	452.305945	945.168619	-298.264358	366.541493	850.262659	-415.407341	322.713535	778.158063	-397.832815	245.348807	731.927101	-402.579374	330.065450	776.328273	-356.284886	144.464695	636.723813	-402.608135	66.674157	654.793103	-362.271195	257.298535	434.915501	-361.033156	184.265196	476.464309	-423.193171	-260.388797	963.505161	-236.455270	-82.781718	79.368803	-436.612524	-82.767930	79.122067	-39.069068	
